<svg width="303" height="75" viewBox="0 0 303 75" fill="none" xmlns="http://www.w3.org/2000/svg">
<path d="M39.2062 50.4062L52.6125 50.2188C52.0187 55.25 50.3156 59.5625 47.5031 63.1562C44.7219 66.7188 41.2219 69.4375 37.0031 71.3125C32.7844 73.1562 28.2062 74.0312 23.2687 73.9375C18.7062 73.8438 14.8625 72.875 11.7375 71.0312C8.61249 69.1562 6.15936 66.6562 4.37811 63.5312C2.59686 60.4062 1.42499 56.9219 0.862488 53.0781C0.299988 49.2344 0.268738 45.2969 0.768738 41.2656L1.42499 36.5312C2.04999 32.2812 3.19061 28.1719 4.84686 24.2031C6.53436 20.2344 8.73749 16.7031 11.4562 13.6094C14.175 10.5156 17.3937 8.07812 21.1125 6.29688C24.8312 4.51562 29.05 3.67188 33.7687 3.76562C38.7062 3.85938 42.8781 4.92188 46.2844 6.95312C49.7219 8.95313 52.3625 11.75 54.2062 15.3438C56.0812 18.9062 57.1281 23.0781 57.3469 27.8594L43.7062 27.8125C43.7375 25.2812 43.425 23.0625 42.7687 21.1562C42.1437 19.2188 41.05 17.7188 39.4875 16.6562C37.925 15.5625 35.7687 14.9688 33.0187 14.875C30.0187 14.7812 27.4719 15.375 25.3781 16.6562C23.2844 17.9375 21.55 19.6562 20.175 21.8125C18.8312 23.9688 17.7687 26.3281 16.9875 28.8906C16.2375 31.4531 15.675 33.9688 15.3 36.4375L14.6437 41.3125C14.3937 43.3438 14.2219 45.5938 14.1281 48.0625C14.0344 50.5 14.2375 52.8281 14.7375 55.0469C15.2375 57.2656 16.2062 59.1094 17.6437 60.5781C19.0812 62.0156 21.2219 62.7812 24.0656 62.875C26.8781 62.9688 29.3 62.5312 31.3312 61.5625C33.3937 60.5938 35.0656 59.1562 36.3469 57.25C37.6594 55.3438 38.6125 53.0625 39.2062 50.4062ZM77.8594 1L65.3437 73H52.1719L64.6875 1H77.8594ZM68.2969 45.8594L64.875 45.9062C65.2187 43.0312 65.8906 40.125 66.8906 37.1875C67.9219 34.25 69.3125 31.5781 71.0625 29.1719C72.8125 26.7344 74.9531 24.7969 77.4844 23.3594C80.0469 21.8906 83.0156 21.2031 86.3906 21.2969C89.2344 21.3594 91.5937 21.9375 93.4687 23.0312C95.375 24.0938 96.8594 25.5469 97.9219 27.3906C98.9844 29.2031 99.6875 31.2812 100.031 33.625C100.375 35.9375 100.406 38.375 100.125 40.9375L94.7812 73H81.5156L86.9531 40.7969C87.1406 39.1406 87.0937 37.6562 86.8125 36.3438C86.5625 35 85.9531 33.9375 84.9844 33.1562C84.0469 32.3438 82.6562 31.9219 80.8125 31.8906C78.7812 31.8281 77.0312 32.1875 75.5625 32.9688C74.125 33.75 72.9062 34.8281 71.9062 36.2031C70.9062 37.5469 70.125 39.0625 69.5625 40.75C69 42.4062 68.5781 44.1094 68.2969 45.8594ZM123.637 73.9375C120.169 73.875 117.044 73.2188 114.262 71.9688C111.481 70.6875 109.153 68.9375 107.278 66.7188C105.434 64.5 104.075 61.9219 103.2 58.9844C102.325 56.0469 102.012 52.8906 102.262 49.5156L102.45 47.5938C102.825 44.0625 103.684 40.7031 105.028 37.5156C106.372 34.3281 108.169 31.5156 110.419 29.0781C112.669 26.6094 115.325 24.6875 118.387 23.3125C121.481 21.9062 124.919 21.25 128.7 21.3438C132.231 21.4062 135.247 22.125 137.747 23.5C140.247 24.875 142.262 26.7188 143.794 29.0312C145.325 31.3438 146.372 33.9844 146.934 36.9531C147.497 39.8906 147.606 42.9688 147.262 46.1875L146.512 51.8125H107.325L108.778 42.8125L134.653 42.8594L134.887 41.6875C135.137 39.9688 135.059 38.375 134.653 36.9062C134.247 35.4062 133.481 34.2031 132.356 33.2969C131.231 32.3906 129.731 31.9062 127.856 31.8438C125.7 31.7812 123.887 32.2344 122.419 33.2031C120.95 34.1719 119.747 35.4531 118.809 37.0469C117.872 38.6406 117.153 40.375 116.653 42.25C116.153 44.0938 115.794 45.875 115.575 47.5938L115.387 49.4688C115.231 51.125 115.278 52.7812 115.528 54.4375C115.778 56.0625 116.262 57.5312 116.981 58.8438C117.731 60.1562 118.747 61.2188 120.028 62.0312C121.341 62.8438 122.981 63.2812 124.95 63.3438C127.45 63.4062 129.747 62.9219 131.841 61.8906C133.966 60.8281 135.872 59.4219 137.559 57.6719L143.466 64.7969C142.059 66.9219 140.262 68.6719 138.075 70.0469C135.919 71.3906 133.591 72.375 131.091 73C128.591 73.6562 126.106 73.9688 123.637 73.9375ZM167.587 63.4375C169.244 63.4688 170.712 63.1562 171.994 62.5C173.306 61.8438 174.384 60.9219 175.228 59.7344C176.072 58.5469 176.634 57.1719 176.916 55.6094L189.337 55.5625C189.056 59.3438 187.837 62.625 185.681 65.4062C183.556 68.1875 180.853 70.3281 177.572 71.8281C174.322 73.3281 170.869 74.0312 167.212 73.9375C163.556 73.875 160.416 73.1406 157.791 71.7344C155.197 70.3281 153.103 68.4531 151.509 66.1094C149.916 63.7344 148.791 61.0312 148.134 58C147.509 54.9688 147.353 51.7812 147.666 48.4375L147.806 47.0312C148.181 43.5312 149.025 40.2188 150.337 37.0938C151.65 33.9375 153.4 31.1719 155.587 28.7969C157.806 26.3906 160.416 24.5312 163.416 23.2188C166.416 21.875 169.806 21.25 173.587 21.3438C177.494 21.4062 180.837 22.2969 183.619 24.0156C186.4 25.7031 188.509 28.0156 189.947 30.9531C191.416 33.8906 192.119 37.2656 192.056 41.0781L179.681 41.0312C179.712 39.5 179.509 38.0469 179.072 36.6719C178.634 35.2656 177.884 34.1406 176.822 33.2969C175.791 32.4219 174.384 31.9375 172.603 31.8438C170.509 31.7812 168.759 32.2188 167.353 33.1562C165.947 34.0625 164.806 35.2969 163.931 36.8594C163.056 38.3906 162.384 40.0625 161.916 41.875C161.447 43.6562 161.119 45.3906 160.931 47.0781L160.837 48.4375C160.681 49.8438 160.587 51.4062 160.556 53.125C160.525 54.8125 160.697 56.4375 161.072 58C161.447 59.5312 162.134 60.8125 163.134 61.8438C164.166 62.8438 165.65 63.375 167.587 63.4375ZM214.819 0.953125L202.303 73H189.131L201.647 0.953125H214.819ZM242.616 22.2812L216.881 47.4531L203.1 59.5469L199.819 49L210.647 37.4219L225.834 22.2812H242.616ZM220.022 73L209.287 49L219.272 41.3125L234.553 73H220.022ZM256.8 22.2812L248.034 73H234.816L243.628 22.2812H256.8ZM245.081 9.29688C245.019 7.17188 245.706 5.46875 247.144 4.1875C248.612 2.90625 250.378 2.25 252.441 2.21875C254.409 2.1875 256.128 2.78125 257.597 4C259.066 5.1875 259.8 6.79688 259.8 8.82812C259.862 10.9531 259.159 12.6563 257.691 13.9375C256.222 15.2187 254.472 15.875 252.441 15.9062C250.472 15.9375 248.753 15.3594 247.284 14.1719C245.847 12.9844 245.112 11.3594 245.081 9.29688ZM273.656 33.8594L266.859 73H253.641L262.453 22.2812H274.828L273.656 33.8594ZM269.766 45.8594L266.484 45.9531C266.828 42.9219 267.516 39.9219 268.547 36.9531C269.578 33.9844 270.984 31.3125 272.766 28.9375C274.578 26.5312 276.781 24.6406 279.375 23.2656C282 21.8906 285.047 21.2344 288.516 21.2969C291.328 21.3906 293.641 21.9844 295.453 23.0781C297.297 24.1406 298.703 25.5781 299.672 27.3906C300.672 29.2031 301.312 31.25 301.594 33.5312C301.906 35.8125 301.938 38.1875 301.688 40.6562L296.25 73H282.984L288.469 40.5156C288.656 38.8594 288.609 37.3906 288.328 36.1094C288.047 34.8281 287.422 33.8125 286.453 33.0625C285.516 32.3125 284.141 31.9219 282.328 31.8906C280.328 31.8281 278.594 32.2031 277.125 33.0156C275.688 33.8281 274.469 34.9219 273.469 36.2969C272.469 37.6719 271.672 39.1875 271.078 40.8438C270.484 42.5 270.047 44.1719 269.766 45.8594Z" fill="#5844C1"/>
<path d="M248.52 8.39344L247 10.0164L251.197 14L258 6.54918L256.336 5L251.053 10.7541L248.52 8.39344Z" fill="#FFFCF9"/>
</svg>
