<svg width="310" height="96" viewBox="0 0 310 96" fill="none" xmlns="http://www.w3.org/2000/svg">
<path d="M43.2062 58.4062L56.6125 58.2188C56.0187 63.25 54.3156 67.5625 51.5031 71.1562C48.7219 74.7188 45.2219 77.4375 41.0031 79.3125C36.7844 81.1562 32.2062 82.0312 27.2687 81.9375C22.7062 81.8438 18.8625 80.875 15.7375 79.0312C12.6125 77.1562 10.1594 74.6562 8.37811 71.5312C6.59686 68.4062 5.42499 64.9219 4.86249 61.0781C4.29999 57.2344 4.26874 53.2969 4.76874 49.2656L5.42499 44.5312C6.04999 40.2812 7.19061 36.1719 8.84686 32.2031C10.5344 28.2344 12.7375 24.7031 15.4562 21.6094C18.175 18.5156 21.3937 16.0781 25.1125 14.2969C28.8312 12.5156 33.05 11.6719 37.7687 11.7656C42.7062 11.8594 46.8781 12.9219 50.2844 14.9531C53.7219 16.9531 56.3625 19.75 58.2062 23.3438C60.0812 26.9062 61.1281 31.0781 61.3469 35.8594L47.7062 35.8125C47.7375 33.2812 47.425 31.0625 46.7687 29.1562C46.1437 27.2188 45.05 25.7188 43.4875 24.6562C41.925 23.5625 39.7687 22.9688 37.0187 22.875C34.0187 22.7812 31.4719 23.375 29.3781 24.6562C27.2844 25.9375 25.55 27.6562 24.175 29.8125C22.8312 31.9688 21.7687 34.3281 20.9875 36.8906C20.2375 39.4531 19.675 41.9688 19.3 44.4375L18.6437 49.3125C18.3937 51.3438 18.2219 53.5938 18.1281 56.0625C18.0344 58.5 18.2375 60.8281 18.7375 63.0469C19.2375 65.2656 20.2062 67.1094 21.6437 68.5781C23.0812 70.0156 25.2219 70.7812 28.0656 70.875C30.8781 70.9688 33.3 70.5312 35.3312 69.5625C37.3937 68.5938 39.0656 67.1562 40.3469 65.25C41.6594 63.3438 42.6125 61.0625 43.2062 58.4062ZM81.8594 9L69.3437 81H56.1719L68.6875 9H81.8594ZM72.2969 53.8594L68.875 53.9062C69.2187 51.0312 69.8906 48.125 70.8906 45.1875C71.9219 42.25 73.3125 39.5781 75.0625 37.1719C76.8125 34.7344 78.9531 32.7969 81.4844 31.3594C84.0469 29.8906 87.0156 29.2031 90.3906 29.2969C93.2344 29.3594 95.5937 29.9375 97.4687 31.0312C99.375 32.0938 100.859 33.5469 101.922 35.3906C102.984 37.2031 103.687 39.2812 104.031 41.625C104.375 43.9375 104.406 46.375 104.125 48.9375L98.7812 81H85.5156L90.9531 48.7969C91.1406 47.1406 91.0937 45.6562 90.8125 44.3438C90.5625 43 89.9531 41.9375 88.9844 41.1562C88.0469 40.3438 86.6562 39.9219 84.8125 39.8906C82.7812 39.8281 81.0312 40.1875 79.5625 40.9688C78.125 41.75 76.9062 42.8281 75.9062 44.2031C74.9062 45.5469 74.125 47.0625 73.5625 48.75C73 50.4062 72.5781 52.1094 72.2969 53.8594ZM127.637 81.9375C124.169 81.875 121.044 81.2188 118.262 79.9688C115.481 78.6875 113.153 76.9375 111.278 74.7188C109.434 72.5 108.075 69.9219 107.2 66.9844C106.325 64.0469 106.012 60.8906 106.262 57.5156L106.45 55.5938C106.825 52.0625 107.684 48.7031 109.028 45.5156C110.372 42.3281 112.169 39.5156 114.419 37.0781C116.669 34.6094 119.325 32.6875 122.387 31.3125C125.481 29.9062 128.919 29.25 132.7 29.3438C136.231 29.4062 139.247 30.125 141.747 31.5C144.247 32.875 146.262 34.7188 147.794 37.0312C149.325 39.3438 150.372 41.9844 150.934 44.9531C151.497 47.8906 151.606 50.9688 151.262 54.1875L150.512 59.8125H111.325L112.778 50.8125L138.653 50.8594L138.887 49.6875C139.137 47.9688 139.059 46.375 138.653 44.9062C138.247 43.4062 137.481 42.2031 136.356 41.2969C135.231 40.3906 133.731 39.9062 131.856 39.8438C129.7 39.7812 127.887 40.2344 126.419 41.2031C124.95 42.1719 123.747 43.4531 122.809 45.0469C121.872 46.6406 121.153 48.375 120.653 50.25C120.153 52.0938 119.794 53.875 119.575 55.5938L119.387 57.4688C119.231 59.125 119.278 60.7812 119.528 62.4375C119.778 64.0625 120.262 65.5312 120.981 66.8438C121.731 68.1562 122.747 69.2188 124.028 70.0312C125.341 70.8438 126.981 71.2812 128.95 71.3438C131.45 71.4062 133.747 70.9219 135.841 69.8906C137.966 68.8281 139.872 67.4219 141.559 65.6719L147.466 72.7969C146.059 74.9219 144.262 76.6719 142.075 78.0469C139.919 79.3906 137.591 80.375 135.091 81C132.591 81.6562 130.106 81.9688 127.637 81.9375ZM171.587 71.4375C173.244 71.4688 174.712 71.1562 175.994 70.5C177.306 69.8438 178.384 68.9219 179.228 67.7344C180.072 66.5469 180.634 65.1719 180.916 63.6094L193.337 63.5625C193.056 67.3438 191.837 70.625 189.681 73.4062C187.556 76.1875 184.853 78.3281 181.572 79.8281C178.322 81.3281 174.869 82.0312 171.212 81.9375C167.556 81.875 164.416 81.1406 161.791 79.7344C159.197 78.3281 157.103 76.4531 155.509 74.1094C153.916 71.7344 152.791 69.0312 152.134 66C151.509 62.9688 151.353 59.7812 151.666 56.4375L151.806 55.0312C152.181 51.5312 153.025 48.2188 154.337 45.0938C155.65 41.9375 157.4 39.1719 159.587 36.7969C161.806 34.3906 164.416 32.5312 167.416 31.2188C170.416 29.875 173.806 29.25 177.587 29.3438C181.494 29.4062 184.837 30.2969 187.619 32.0156C190.4 33.7031 192.509 36.0156 193.947 38.9531C195.416 41.8906 196.119 45.2656 196.056 49.0781L183.681 49.0312C183.712 47.5 183.509 46.0469 183.072 44.6719C182.634 43.2656 181.884 42.1406 180.822 41.2969C179.791 40.4219 178.384 39.9375 176.603 39.8438C174.509 39.7812 172.759 40.2188 171.353 41.1562C169.947 42.0625 168.806 43.2969 167.931 44.8594C167.056 46.3906 166.384 48.0625 165.916 49.875C165.447 51.6562 165.119 53.3906 164.931 55.0781L164.837 56.4375C164.681 57.8438 164.587 59.4062 164.556 61.125C164.525 62.8125 164.697 64.4375 165.072 66C165.447 67.5312 166.134 68.8125 167.134 69.8438C168.166 70.8438 169.65 71.375 171.587 71.4375ZM218.819 8.95312L206.303 81H193.131L205.647 8.95312H218.819ZM246.616 30.2812L220.881 55.4531L207.1 67.5469L203.819 57L214.647 45.4219L229.834 30.2812H246.616ZM224.022 81L213.287 57L223.272 49.3125L238.553 81H224.022ZM260.8 30.2812L252.034 81H238.816L247.628 30.2812H260.8ZM249.081 17.2969C249.019 15.1719 249.706 13.4687 251.144 12.1875C252.612 10.9063 254.378 10.25 256.441 10.2188C258.409 10.1875 260.128 10.7812 261.597 12C263.066 13.1875 263.8 14.7969 263.8 16.8281C263.862 18.9531 263.159 20.6563 261.691 21.9375C260.222 23.2187 258.472 23.875 256.441 23.9062C254.472 23.9375 252.753 23.3594 251.284 22.1719C249.847 20.9844 249.112 19.3594 249.081 17.2969ZM277.656 41.8594L270.859 81H257.641L266.453 30.2812H278.828L277.656 41.8594ZM273.766 53.8594L270.484 53.9531C270.828 50.9219 271.516 47.9219 272.547 44.9531C273.578 41.9844 274.984 39.3125 276.766 36.9375C278.578 34.5312 280.781 32.6406 283.375 31.2656C286 29.8906 289.047 29.2344 292.516 29.2969C295.328 29.3906 297.641 29.9844 299.453 31.0781C301.297 32.1406 302.703 33.5781 303.672 35.3906C304.672 37.2031 305.312 39.25 305.594 41.5312C305.906 43.8125 305.938 46.1875 305.688 48.6562L300.25 81H286.984L292.469 48.5156C292.656 46.8594 292.609 45.3906 292.328 44.1094C292.047 42.8281 291.422 41.8125 290.453 41.0625C289.516 40.3125 288.141 39.9219 286.328 39.8906C284.328 39.8281 282.594 40.2031 281.125 41.0156C279.688 41.8281 278.469 42.9219 277.469 44.2969C276.469 45.6719 275.672 47.1875 275.078 48.8438C274.484 50.5 274.047 52.1719 273.766 53.8594Z" fill="#5844C1"/>
<path d="M252.52 16.3934L251 18.0164L255.197 22L262 14.5492L260.336 13L255.053 18.7541L252.52 16.3934Z" fill="#FFF8F0"/>
</svg>
