<svg width="18" height="17" viewBox="0 0 18 17" fill="none" xmlns="http://www.w3.org/2000/svg">
<g clip-path="url(#clip0_2913_1513)">
<path d="M8.9997 13.3L4.19523 15.7908L5.11395 10.5159L1.22656 6.77892L6.59828 6.00832L8.9997 1.20898L11.4028 6.00832L16.7745 6.77892L12.8871 10.5159L13.8042 15.7908L8.9997 13.3Z" fill="#EF9854"/>
<path d="M13.8045 17C13.61 17 13.4138 16.9549 13.234 16.8614L9.00003 14.6656L4.76608 16.8614C4.3525 17.0758 3.85227 17.0403 3.47465 16.7695C3.09703 16.4986 2.9074 16.0408 2.9875 15.5878L3.79669 10.9384L0.370299 7.64476C0.0368145 7.32395 -0.0841554 6.84353 0.0597008 6.40503C0.203557 5.96653 0.587718 5.64893 1.04871 5.58284L5.78289 4.90413L7.90149 0.673874C8.10747 0.261166 8.53413 0 9.00167 0C9.4692 0 9.89423 0.261166 10.1018 0.673874L12.2188 4.90413L16.953 5.58284C17.4156 5.64893 17.7981 5.96814 17.942 6.40503C18.0859 6.84192 17.9665 7.32395 17.6314 7.64476L14.2066 10.9367L15.0158 15.5862C15.0943 16.0392 14.9063 16.4986 14.5287 16.7679C14.3145 16.921 14.0628 16.9984 13.8078 16.9984L13.8045 17ZM9.00003 12.091C9.1962 12.091 9.39237 12.1378 9.57055 12.2297L12.1763 13.5807L11.6794 10.7191C11.6107 10.3274 11.7431 9.92594 12.0325 9.64865L14.1396 7.62219L11.2265 7.20465C10.8277 7.14822 10.4827 6.89995 10.3029 6.54367L9.00003 3.94007L7.69715 6.54367C7.51897 6.89995 7.17404 7.14822 6.77353 7.20465L3.86045 7.62219L5.96761 9.64865C6.25696 9.92594 6.38774 10.3274 6.32071 10.7191L5.82375 13.5807L8.42951 12.2297C8.6077 12.1378 8.80386 12.091 9.00003 12.091Z" fill="#EF9854"/>
</g>
<defs>
<clipPath id="clip0_2913_1513">
<rect width="18" height="17" fill="white"/>
</clipPath>
</defs>
</svg>
